HIERARCHY
ROOT Hips
{
  OFFSET 0.0000 88.1582 0.0000
  CHANNELS 6 Xposition Yposition Zposition Yrotation Xrotation Zrotation
  JOINT Spine
  {
    OFFSET 0.0000 12.4674 0.0000
    CHANNELS 3 Yrotation Xrotation Zrotation
    JOINT Spine1
    {
      OFFSET 0.0000 12.2380 0.0000
      CHANNELS 3 Yrotation Xrotation Zrotation
      JOINT Spine2
      {
        OFFSET 0.0000 11.5142 0.0000
        CHANNELS 3 Yrotation Xrotation Zrotation
        JOINT LeftShoulder
        {
          OFFSET 6.6026 9.6620 0.0000
          CHANNELS 3 Yrotation Xrotation Zrotation
          JOINT LeftArm
          {
            OFFSET 0.0000 12.6234 0.0000
            CHANNELS 3 Yrotation Xrotation Zrotation
            JOINT LeftForeArm
            {
              OFFSET -0.0001 24.4780 0.0000
              CHANNELS 3 Yrotation Xrotation Zrotation
              JOINT LeftHand
              {
                OFFSET 0.0000 26.9540 0.0000
                CHANNELS 3 Yrotation Xrotation Zrotation
                JOINT LeftHandIndex1
                {
                  OFFSET -2.4222 7.6359 0.0974
                  CHANNELS 3 Yrotation Xrotation Zrotation
                  JOINT LeftHandIndex2
                  {
                    OFFSET 0.0000 4.3320 0.0000
                    CHANNELS 3 Yrotation Xrotation Zrotation
                    JOINT LeftHandIndex3
                    {
                      OFFSET 0.0000 2.6652 0.0000
                      CHANNELS 3 Yrotation Xrotation Zrotation
                      End Site
                      {
                        OFFSET 0.0000 1.3566 0.0000
                      }
                    }
                  }
                }
                JOINT LeftHandMiddle1
                {
                  OFFSET -0.5154 7.6951 0.0974
                  CHANNELS 3 Yrotation Xrotation Zrotation
                  JOINT LeftHandMiddle2
                  {
                    OFFSET 0.0000 4.4473 0.0000
                    CHANNELS 3 Yrotation Xrotation Zrotation
                    JOINT LeftHandMiddle3
                    {
                      OFFSET 0.0000 2.9333 0.0000
                      CHANNELS 3 Yrotation Xrotation Zrotation
                      End Site
                      {
                        OFFSET 0.0000 1.4991 0.0000
                      }
                    }
                  }
                }
                JOINT LeftHandPinky1
                {
                  OFFSET 2.9666 6.6373 0.0975
                  CHANNELS 3 Yrotation Xrotation Zrotation
                  JOINT LeftHandPinky2
                  {
                    OFFSET 0.0000 3.3612 0.0000
                    CHANNELS 3 Yrotation Xrotation Zrotation
                    JOINT LeftHandPinky3
                    {
                      OFFSET 0.0000 2.1128 0.0000
                      CHANNELS 3 Yrotation Xrotation Zrotation
                      End Site
                      {
                        OFFSET 0.0000 1.1205 0.0000
                      }
                    }
                  }
                }
                JOINT LeftHandRing1
                {
                  OFFSET 1.3623 7.3832 0.0975
                  CHANNELS 3 Yrotation Xrotation Zrotation
                  JOINT LeftHandRing2
                  {
                    OFFSET 0.0000 4.1539 0.0000
                    CHANNELS 3 Yrotation Xrotation Zrotation
                    JOINT LeftHandRing3
                    {
                      OFFSET 0.0000 2.6790 0.0000
                      CHANNELS 3 Yrotation Xrotation Zrotation
                      End Site
                      {
                        OFFSET 0.0000 1.3500 0.0000
                      }
                    }
                  }
                }
                JOINT LeftHandThumb1
                {
                  OFFSET -2.6352 1.9662 0.0890
                  CHANNELS 3 Yrotation Xrotation Zrotation
                  JOINT LeftHandThumb2
                  {
                    OFFSET 0.0000 3.7470 0.0000
                    CHANNELS 3 Yrotation Xrotation Zrotation
                    JOINT LeftHandThumb3
                    {
                      OFFSET 0.0000 2.8440 0.0000
                      CHANNELS 3 Yrotation Xrotation Zrotation
                      End Site
                      {
                        OFFSET 0.0000 1.7295 0.0000
                      }
                    }
                  }
                }
              }
            }
          }
        }
        JOINT Neck
        {
          OFFSET 0.0000 16.9498 0.0000
          CHANNELS 3 Yrotation Xrotation Zrotation
          JOINT Head
          {
            OFFSET 0.0000 10.3509 0.0000
            CHANNELS 3 Yrotation Xrotation Zrotation
            End Site
            {
              OFFSET 0.0000 8.0220 0.0000
            }
          }
        }
        JOINT RightShoulder
        {
          OFFSET -6.6026 9.6620 0.0000
          CHANNELS 3 Yrotation Xrotation Zrotation
          JOINT RightArm
          {
            OFFSET 0.0000 12.6234 0.0000
            CHANNELS 3 Yrotation Xrotation Zrotation
            JOINT RightForeArm
            {
              OFFSET 0.0000 24.4781 0.0000
              CHANNELS 3 Yrotation Xrotation Zrotation
              JOINT RightHand
              {
                OFFSET -0.0001 26.9540 0.0000
                CHANNELS 3 Yrotation Xrotation Zrotation
                JOINT RightHandIndex1
                {
                  OFFSET 2.4222 7.6360 0.0974
                  CHANNELS 3 Yrotation Xrotation Zrotation
                  JOINT RightHandIndex2
                  {
                    OFFSET 0.0000 4.3321 -0.0001
                    CHANNELS 3 Yrotation Xrotation Zrotation
                    JOINT RightHandIndex3
                    {
                      OFFSET 0.0000 2.6652 0.0000
                      CHANNELS 3 Yrotation Xrotation Zrotation
                      End Site
                      {
                        OFFSET 0.0000 1.3566 0.0000
                      }
                    }
                  }
                }
                JOINT RightHandMiddle1
                {
                  OFFSET 0.5154 7.6952 0.0974
                  CHANNELS 3 Yrotation Xrotation Zrotation
                  JOINT RightHandMiddle2
                  {
                    OFFSET 0.0000 4.4473 -0.0001
                    CHANNELS 3 Yrotation Xrotation Zrotation
                    JOINT RightHandMiddle3
                    {
                      OFFSET 0.0000 2.9333 0.0000
                      CHANNELS 3 Yrotation Xrotation Zrotation
                      End Site
                      {
                        OFFSET 0.0000 1.4991 0.0000
                      }
                    }
                  }
                }
                JOINT RightHandPinky1
                {
                  OFFSET -2.9667 6.6374 0.0974
                  CHANNELS 3 Yrotation Xrotation Zrotation
                  JOINT RightHandPinky2
                  {
                    OFFSET 0.0000 3.3613 -0.0001
                    CHANNELS 3 Yrotation Xrotation Zrotation
                    JOINT RightHandPinky3
                    {
                      OFFSET 0.0000 2.1128 0.0000
                      CHANNELS 3 Yrotation Xrotation Zrotation
                      End Site
                      {
                        OFFSET 0.0000 1.1205 0.0000
                      }
                    }
                  }
                }
                JOINT RightHandRing1
                {
                  OFFSET -1.3624 7.3833 0.0974
                  CHANNELS 3 Yrotation Xrotation Zrotation
                  JOINT RightHandRing2
                  {
                    OFFSET 0.0000 4.1540 -0.0001
                    CHANNELS 3 Yrotation Xrotation Zrotation
                    JOINT RightHandRing3
                    {
                      OFFSET 0.0000 2.6790 0.0000
                      CHANNELS 3 Yrotation Xrotation Zrotation
                      End Site
                      {
                        OFFSET 0.0000 1.3500 0.0000
                      }
                    }
                  }
                }
                JOINT RightHandThumb1
                {
                  OFFSET 2.6352 1.9663 0.0889
                  CHANNELS 3 Yrotation Xrotation Zrotation
                  JOINT RightHandThumb2
                  {
                    OFFSET 0.0000 3.7470 -0.0001
                    CHANNELS 3 Yrotation Xrotation Zrotation
                    JOINT RightHandThumb3
                    {
                      OFFSET 0.0000 2.8440 -0.0001
                      CHANNELS 3 Yrotation Xrotation Zrotation
                      End Site
                      {
                        OFFSET 0.0000 1.7295 0.0000
                      }
                    }
                  }
                }
              }
            }
          }
        }
      }
    }
  }
  JOINT LeftUpLeg
  {
    OFFSET 7.5966 0.0000 0.0000
    CHANNELS 3 Yrotation Xrotation Zrotation
    JOINT LeftLeg
    {
      OFFSET 0.0000 40.5152 0.0000
      CHANNELS 3 Yrotation Xrotation Zrotation
      JOINT LeftFoot
      {
        OFFSET 0.0000 40.6090 0.0000
        CHANNELS 3 Yrotation Xrotation Zrotation
        JOINT LeftToeBase
        {
          OFFSET 0.0000 13.6671 0.0000
          CHANNELS 3 Yrotation Xrotation Zrotation
          End Site
          {
            OFFSET 0.0000 3.5000 0.0000
          }
        }
      }
    }
  }
  JOINT RightUpLeg
  {
    OFFSET -7.5966 0.0000 0.0000
    CHANNELS 3 Yrotation Xrotation Zrotation
    JOINT RightLeg
    {
      OFFSET 0.0000 40.5153 0.0000
      CHANNELS 3 Yrotation Xrotation Zrotation
      JOINT RightFoot
      {
        OFFSET 0.0000 40.6090 0.0000
        CHANNELS 3 Yrotation Xrotation Zrotation
        JOINT RightToeBase
        {
          OFFSET 0.0000 13.6671 0.0000
          CHANNELS 3 Yrotation Xrotation Zrotation
          End Site
          {
            OFFSET 0.0000 3.5000 0.0000
          }
        }
      }
    }
  }
}
MOTION
Frames: 8
Frame Time: 0.033333
0.0000 88.1582 0.0000 0.0000 0.0000 0.0000 0.0000 0.0000 0.0000 0.0000 0.0000 0.0000 0.0000 0.0000 0.0000 -270.0000 90.0000 0.0000 0.0000 0.0000 0.0000 0.0000 0.0000 0.0000 0.0000 0.0000 0.0000 0.0000 0.0000 0.0001 0.0000 0.0000 0.0000 0.0000 -0.0013 -0.0008 0.0000 -0.0004 0.0001 0.0000 0.0000 0.0000 0.0000 0.0000 0.0000 0.0000 0.0003 0.0000 0.0000 -0.0007 0.0003 0.0000 0.0004 -0.0006 0.0000 0.0000 0.0001 0.0000 0.0000 0.0000 0.0000 -0.0010 -0.0002 0.0000 0.0002 30.0001 -0.0001 0.0005 -29.9998 0.0000 0.0000 0.0000 0.0000 0.0000 0.0000 0.0000 0.0000 0.0000 270.0001 90.0000 0.0000 0.0000 0.0000 0.0000 0.0000 0.0000 0.0000 0.0000 0.0000 0.0000 0.0000 -0.0001 0.0001 0.0000 0.0000 0.0000 0.0000 -0.0006 0.0003 0.0000 -0.0001 0.0001 0.0000 0.0000 0.0000 0.0000 0.0000 0.0000 0.0000 0.0007 0.0001 0.0000 -0.0011 0.0001 0.0000 -0.0008 0.0003 0.0000 0.0001 0.0000 0.0000 0.0000 0.0000 0.0000 -0.0009 0.0000 0.0000 0.0002 -29.9997 -0.0001 -0.0002 29.9996 0.0000 0.0000 0.0000 0.0000 0.0000 180.0000 0.0000 0.0001 0.0826 -0.1744 64.6492 -0.1930 0.0000 25.3510 0.0000 0.0000 0.0000 180.0000 0.0000 0.0000 -0.0827 0.1745 64.6492 0.1931 0.0000 25.3508 -0.0001 
10.6391 87.9606 11.1428 -3.2950 0.4972 -0.7319 0.5329 -0.3216 -0.8170 0.5330 -0.3216 -0.8171 0.5345 -0.3225 -0.8195 122.6386 86.6463 24.4206 70.5912 54.5899 63.5086 12.9445 -4.6712 92.6051 -23.7230 -6.9515 19.4154 3.2535 42.8583 -11.1933 0.0000 46.6233 0.0000 0.0000 31.1775 -0.0008 -19.8711 41.0197 -28.9430 0.0001 57.0719 0.0002 0.0001 38.2264 0.0002 -41.8551 28.1168 -42.7107 -0.0002 36.3323 0.0004 -0.0001 24.2678 -0.0006 -32.9353 33.5467 -37.9131 0.0000 45.3576 0.0000 0.0000 30.3263 -0.0002 63.0912 19.8558 45.4636 -6.4938 1.4019 -36.2084 -1.5886 13.2466 -13.6153 -0.5663 1.9488 3.3826 -0.5663 1.9488 3.3826 175.0051 84.5615 -81.9314 21.8252 80.7348 -42.8133 9.9931 -25.6392 -136.2251 -20.8686 10.6684 -20.5700 1.8795 10.7738 30.6190 0.0000 14.3971 -0.0001 0.0000 9.6002 0.0002 -7.6729 11.6379 36.2380 0.0000 19.4024 0.0000 0.0000 12.9418 0.0000 -3.4732 -2.5486 55.1423 0.0000 19.0777 0.0001 0.0000 12.7250 0.0002 -2.0025 1.6502 44.1143 0.0000 18.0491 0.0000 0.0000 12.0375 0.0000 -31.4151 22.5867 -27.1374 4.6922 11.9943 25.1991 1.3872 12.4076 12.7092 -0.6740 -2.3068 179.6664 0.0478 -12.8642 0.0881 8.7502 73.8701 13.7879 0.0000 25.9711 0.0000 -0.5277 3.8347 -178.9064 0.0151 -2.4690 -0.0837 -6.2549 70.6816 -12.0068 0.0000 26.0210 -0.0001 
10.6391 87.9653 11.1612 -3.3554 0.5004 -0.7325 0.5332 -0.3260 -0.8145 0.5333 -0.3260 -0.8145 0.5348 -0.3269 -0.8169 122.5711 86.6426 24.3659 70.5830 54.5971 63.5110 12.9649 -4.6797 92.5966 -23.7580 -6.9689 19.4257 3.2684 42.8379 -11.1857 0.0000 46.6894 0.0001 0.0000 31.2220 -0.0008 -19.8670 41.0156 -28.9400 0.0001 57.0788 0.0002 0.0001 38.2310 0.0002 -41.8520 28.1175 -42.7066 -0.0002 36.3393 0.0003 -0.0001 24.2725 -0.0006 -32.9354 33.5482 -37.9099 0.0000 45.3571 0.0001 0.0000 30.3260 -0.0001 63.0923 19.8595 45.4573 -6.4909 1.4023 -36.2000 -1.5878 13.2434 -13.6119 -0.5632 2.0130 3.4296 -0.5632 2.0130 3.4296 175.1606 84.5619 -81.7575 21.4634 80.6540 -43.2971 10.0602 -25.6364 -136.3150 -20.8412 10.8059 -20.6094 1.7497 10.8615 30.5539 0.0000 14.4427 -0.0001 0.0000 9.6307 0.0002 -7.7844 11.7708 36.1736 0.0000 19.3184 0.0000 0.0000 12.8857 0.0000 -3.5281 -2.5873 55.1590 0.0000 19.0394 0.0001 0.0000 12.6995 0.0002 -2.0695 1.6393 44.1070 0.0000 18.0534 0.0000 0.0000 12.0403 0.0000 -31.4136 22.6254 -27.1516 4.7331 12.0285 25.3166 1.3990 12.4588 12.7642 -0.6281 -2.2604 179.6604 0.0491 -12.8004 0.0881 8.7451 73.8505 13.8235 0.0000 25.9709 0.0000 -0.4917 3.9796 -178.9050 0.0124 -2.1864 -0.0836 -6.2406 70.5406 -11.9913 0.0000 26.0211 -0.0001 
10.6335 87.9692 11.1766 -3.4133 0.5128 -0.7363 0.5314 -0.3317 -0.8143 0.5314 -0.3317 -0.8143 0.5330 -0.3327 -0.8167 122.4012 86.6314 24.2116 70.5918 54.5928 63.5166 12.9725 -4.6692 92.5978 -23.7557 -6.9965 19.4249 3.2877 42.8252 -11.1675 0.0000 46.7522 0.0001 0.0000 31.2643 -0.0008 -19.8635 41.0125 -28.9384 0.0000 57.0841 0.0002 0.0001 38.2346 0.0001 -41.8502 28.1180 -42.7125 -0.0002 36.3456 0.0003 -0.0001 24.2768 -0.0006 -32.9379 33.5505 -37.9211 0.0000 45.3545 0.0000 0.0000 30.3242 -0.0001 63.0973 19.8658 45.4543 -6.4883 1.4002 -36.1945 -1.5871 13.2406 -13.6088 -0.5663 2.0609 3.4877 -0.5663 2.0609 3.4877 175.2363 84.5729 -81.6515 20.7958 80.5323 -44.0754 10.1503 -25.6421 -136.3954 -20.7840 10.9254 -20.7307 1.6469 10.9237 30.4833 0.0000 14.4635 0.0000 0.0000 9.6445 0.0002 -7.8469 11.8487 36.1160 0.0000 19.3288 0.0000 0.0000 12.8927 0.0000 -3.5848 -2.6441 55.2024 0.0000 19.0459 0.0001 0.0000 12.7038 0.0002 -2.0999 1.5642 44.0958 0.0000 18.1973 0.0000 0.0000 12.1364 0.0000 -31.3911 22.6709 -27.1421 4.7582 12.0671 25.3834 1.4071 12.4936 12.8017 -0.5910 -2.2300 179.6620 0.0474 -12.7459 0.0908 8.7069 73.8390 13.8136 0.0000 25.9709 0.0000 -0.4406 4.1138 -178.8947 0.0109 -1.9034 -0.0833 -6.2205 70.3995 -11.9873 0.0000 26.0213 -0.0001 
10.6300 87.9723 11.1917 -3.4659 0.5269 -0.7381 0.5273 -0.3363 -0.8164 0.5273 -0.3363 -0.8164 0.5289 -0.3373 -0.8188 122.3705 86.6177 24.1937 70.5786 54.5884 63.5156 12.9802 -4.6712 92.5977 -23.7764 -7.0164 19.4206 3.2645 42.8270 -11.1796 0.0000 46.7502 0.0001 0.0000 31.2629 -0.0008 -19.8637 41.0150 -28.9337 0.0001 57.0835 0.0003 0.0001 38.2342 0.0002 -41.8414 28.1135 -42.7043 -0.0002 36.3582 0.0004 -0.0001 24.2852 -0.0006 -32.9518 33.5638 -37.9426 0.0000 45.3390 0.0000 0.0000 30.3138 -0.0002 63.1007 19.8668 45.4603 -6.4893 1.4008 -36.1969 -1.5874 13.2417 -13.6100 -0.5751 2.0984 3.5477 -0.5751 2.0984 3.5477 175.3310 84.5861 -81.5402 20.5179 80.4597 -44.4319 10.2152 -25.6693 -136.5285 -20.6629 11.1307 -20.8342 1.5592 10.9834 30.4042 0.0000 14.5190 0.0000 0.0000 9.6816 0.0002 -7.9235 11.9235 36.0544 0.0000 19.3683 0.0000 0.0000 12.9191 0.0000 -3.6580 -2.6960 55.2230 0.0000 19.0563 0.0001 0.0000 12.7108 0.0003 -2.1544 1.6111 44.0641 0.0000 18.1355 0.0000 0.0000 12.0951 0.0000 -31.3751 22.7067 -27.1353 4.7894 12.1114 25.4670 1.4170 12.5360 12.8474 -0.5789 -2.2168 179.6614 0.0461 -12.7194 0.0882 8.6707 73.8263 13.8288 0.0000 25.9707 0.0000 -0.4031 4.1926 -178.8880 0.0101 -1.7281 -0.0831 -6.2342 70.3057 -12.0139 0.0000 26.0215 -0.0001 
10.6246 87.9742 11.2047 -3.5205 0.5386 -0.7377 0.5276 -0.3385 -0.8193 0.5276 -0.3384 -0.8194 0.5292 -0.3394 -0.8218 122.3650 86.5988 24.2056 70.5810 54.5658 63.5445 12.9701 -4.6734 92.5839 -23.7994 -7.0369 19.4200 3.2636 42.8397 -11.1909 0.0000 46.7079 0.0001 0.0000 31.2345 -0.0008 -19.8641 41.0175 -28.9320 0.0001 57.0826 0.0002 0.0001 38.2336 0.0001 -41.8344 28.1100 -42.6989 -0.0002 36.3678 0.0003 -0.0001 24.2917 -0.0006 -32.9615 33.5781 -37.9448 0.0000 45.3263 0.0000 0.0000 30.3053 -0.0001 63.1025 19.8652 45.4690 -6.4914 1.4027 -36.2012 -1.5879 13.2440 -13.6125 -0.5954 2.1246 3.6026 -0.5954 2.1246 3.6026 175.3242 84.5983 -81.5296 20.5581 80.3663 -44.4749 10.2196 -25.6645 -136.6260 -20.6484 11.2334 -20.8889 1.4242 11.0751 30.3335 0.0000 14.6475 0.0000 0.0000 9.7673 0.0002 -8.0614 12.0585 35.9764 0.0000 19.4018 0.0000 0.0000 12.9414 0.0000 -3.7322 -2.7647 55.2340 0.0000 19.0893 0.0001 0.0000 12.7327 0.0002 -2.2518 1.6334 44.0457 0.0000 18.2576 0.0000 0.0000 12.1766 0.0000 -31.3890 22.7217 -27.1369 4.8394 12.2271 25.5869 1.4350 12.6126 12.9298 -0.5640 -2.2063 179.6584 0.0457 -12.7015 0.0857 8.6325 73.8204 13.8496 0.0000 25.9706 0.0000 -0.3861 4.2186 -178.8847 0.0091 -1.6610 -0.0836 -6.2587 70.2682 -12.0260 0.0000 26.0216 -0.0001 
10.6183 87.9751 11.2154 -3.5787 0.5491 -0.7382 0.5294 -0.3382 -0.8208 0.5294 -0.3381 -0.8208 0.5310 -0.3391 -0.8233 122.4537 86.5830 24.2962 70.5758 54.5369 63.5807 12.9678 -4.6724 92.5786 -23.8098 -7.0507 19.4021 3.3094 42.8298 -11.1517 0.0000 46.7709 0.0001 0.0000 31.2768 -0.0008 -19.8669 41.0259 -28.9291 0.0002 57.0768 0.0003 0.0001 38.2297 0.0002 -41.8331 28.1114 -42.6965 -0.0002 36.3705 0.0003 -0.0001 24.2935 -0.0006 -32.9694 33.5920 -37.9449 0.0000 45.3157 0.0001 0.0000 30.2981 -0.0001 63.1059 19.8682 45.4716 -6.4906 1.4021 -36.1994 -1.5877 13.2431 -13.6116 -0.6102 2.1472 3.6518 -0.6102 2.1472 3.6518 175.4713 84.6154 -81.3639 20.5785 80.2711 -44.4811 10.3024 -25.6739 -136.7315 -20.6661 11.3583 -20.9679 1.2821 11.2112 30.2373 0.0000 14.8076 0.0000 0.0000 9.8742 0.0002 -8.1285 12.1798 35.8829 0.0000 19.4828 0.0000 0.0000 12.9955 0.0000 -3.8179 -2.7933 55.2388 0.0000 19.1067 0.0001 0.0000 12.7444 0.0002 -2.2905 1.6876 43.9988 0.0000 18.2002 0.0000 0.0000 12.1383 0.0000 -31.4190 22.7295 -27.1373 4.8759 12.3387 25.6661 1.4494 12.6737 12.9957 -0.5282 -2.1892 179.6564 0.0451 -12.6725 0.0873 8.5918 73.8241 13.8522 0.0000 25.9705 0.0000 -0.3448 4.2089 -178.8789 0.0093 -1.6632 -0.0835 -6.2723 70.2657 -12.0446 0.0000 26.0216 -0.0001 
10.6113 87.9748 11.2234 -3.6371 0.5571 -0.7398 0.5298 -0.3348 -0.8208 0.5299 -0.3348 -0.8209 0.5314 -0.3358 -0.8233 122.5891 86.5744 24.4237 70.5550 54.5220 63.5998 12.9704 -4.6739 92.5842 -23.8175 -7.0405 19.3775 3.2435 42.8305 -11.2020 0.0000 46.7275 0.0001 0.0000 31.2476 -0.0008 -19.8736 41.0421 -28.9255 0.0001 57.0644 0.0002 0.0001 38.2213 0.0002 -41.8461 28.1250 -42.6985 -0.0002 36.3582 0.0003 -0.0001 24.2852 -0.0006 -32.9639 33.5920 -37.9369 0.0000 45.3217 0.0001 0.0000 30.3022 -0.0001 63.1099 19.8723 45.4722 -6.4893 1.4015 -36.1962 -1.5873 13.2417 -13.6100 -0.6098 2.1656 3.6937 -0.6098 2.1656 3.6937 175.6967 84.6142 -81.1090 20.6813 80.2734 -44.3790 10.3438 -25.6584 -136.8168 -20.6496 11.5282 -21.0581 1.2263 11.3231 30.1470 0.0000 14.8808 0.0000 0.0000 9.9230 0.0002 -8.0661 12.2447 35.7849 0.0000 19.4030 0.0000 0.0000 12.9422 0.0000 -3.8475 -2.9244 55.2527 0.0000 19.2150 0.0001 0.0000 12.8167 0.0002 -2.3220 1.6680 43.9494 0.0000 18.2916 0.0000 0.0000 12.1993 0.0000 -31.4413 22.7384 -27.1306 4.8941 12.4450 25.6906 1.4589 12.7141 13.0393 -0.4940 -2.1782 179.6571 0.0456 -12.6570 0.0881 8.5497 73.8310 13.8472 0.0000 25.9704 0.0000 -0.3024 4.1360 -178.8720 0.0098 -1.7929 -0.0833 -6.3135 70.3225 -12.0906 0.0000 26.0217 -0.0001 
